<?xml version="1.0" encoding="UTF-8"?>
<svg version="1.1" xmlns="http://www.w3.org/2000/svg" width="86" height="84">
<path d="M0 0 C28.38 0 56.76 0 86 0 C86 27.72 86 55.44 86 84 C57.62 84 29.24 84 0 84 C0 56.28 0 28.56 0 0 Z " fill="#CEB871" transform="translate(0,0)"/>
<path d="M0 0 C28.38 0 56.76 0 86 0 C86 27.72 86 55.44 86 84 C57.62 84 29.24 84 0 84 C0 56.28 0 28.56 0 0 Z M11 14 C7.05643207 19.72258674 6.39482453 23.93510692 6.43359375 30.80859375 C6.42739517 31.73414566 6.42119659 32.65969757 6.41481018 33.61329651 C6.40773605 35.56225539 6.41084377 37.511275 6.42358398 39.46020508 C6.43744524 42.42578457 6.40334894 45.38820224 6.36523438 48.35351562 C6.36428297 50.2552091 6.36614314 52.15690648 6.37109375 54.05859375 C6.35783554 54.9359166 6.34457733 55.81323944 6.33091736 56.71714783 C6.44018355 64.0203352 8.99745662 68.640783 13.80859375 74.0234375 C14.61490234 74.69246094 14.61490234 74.69246094 15.4375 75.375 C16.23994141 76.06722656 16.23994141 76.06722656 17.05859375 76.7734375 C22.15722251 79.99470396 27.44809505 80.31841806 33.328125 80.3359375 C34.11717224 80.3425943 34.90621948 80.3492511 35.71917725 80.35610962 C37.38323654 80.36619545 39.04733595 80.3709279 40.71142578 80.37060547 C43.22888629 80.37496345 45.74456952 80.41128168 48.26171875 80.44921875 C57.96982933 80.51876023 66.53659542 80.4039944 74.4375 74.03515625 C74.953125 73.38417969 75.46875 72.73320313 76 72.0625 C76.53625 71.41410156 77.0725 70.76570313 77.625 70.09765625 C81.09065273 64.81056671 81.30757535 60.1858514 81.30078125 54.04296875 C81.30720894 52.75027824 81.30720894 52.75027824 81.31376648 51.43147278 C81.31949653 49.6117948 81.32001982 47.79209392 81.31567383 45.97241211 C81.31252235 43.20711545 81.33595965 40.44289828 81.36132812 37.67773438 C81.3636023 35.90364717 81.36430407 34.12955712 81.36328125 32.35546875 C81.372491 31.53749313 81.38170074 30.71951752 81.39118958 29.87675476 C81.34083943 23.53862001 80.34309485 17.82270488 76.16796875 12.79296875 C75.51441406 12.26316406 74.86085938 11.73335937 74.1875 11.1875 C73.54167969 10.64480469 72.89585938 10.10210937 72.23046875 9.54296875 C66.36507842 5.48547457 61.90576911 4.54145362 54.9453125 4.56640625 C53.65474442 4.55854347 53.65474442 4.55854347 52.33810425 4.55052185 C50.52440465 4.5441209 48.71066344 4.54541362 46.89697266 4.55395508 C44.14018801 4.56245318 41.38548596 4.53369735 38.62890625 4.50195312 C36.85937562 4.50034044 35.08984135 4.50091994 33.3203125 4.50390625 C32.09805466 4.48705528 32.09805466 4.48705528 30.85110474 4.46986389 C22.57066633 4.56934193 16.35153309 7.60789103 11 14 Z " fill="#0F0F0C" transform="translate(0,0)"/>
<path d="M0 0 C2.31 0 4.62 0 7 0 C9.14777452 5.26661731 11.2442378 10.55256673 13.25 15.875 C13.58515625 16.75929688 13.9203125 17.64359375 14.265625 18.5546875 C15 21 15 21 15 25 C13.35 25 11.7 25 10 25 C9.34 23.02 8.68 21.04 8 19 C4.04 19.495 4.04 19.495 0 20 C-0.99 22.475 -0.99 22.475 -2 25 C-3.98 25 -5.96 25 -8 25 C-6.43889635 16.25781959 -3.21518143 8.24016625 0 0 Z " fill="#100F0B" transform="translate(40,29)"/>
<path d="M0 0 C2.76223278 2.76223278 2.57856291 5.20706617 3 9 C1.35 9 -0.3 9 -2 9 C-1.34 6.03 -0.68 3.06 0 0 Z " fill="#BEA968" transform="translate(43,35)"/>
</svg>
